<svg width="25" height="25" viewBox="0 0 25 25" fill="none" xmlns="http://www.w3.org/2000/svg">
<path fill-rule="evenodd" clip-rule="evenodd" d="M14.2284 21.6249L4.93243 12.5L14.2284 3.37512C14.5896 2.99467 14.7862 2.49147 14.7768 1.97153C14.7675 1.4516 14.5529 0.955525 14.1783 0.587819C13.8037 0.220113 13.2983 0.00948635 12.7686 0.000312677C12.239 -0.008861 11.7263 0.184134 11.3387 0.53864L0.597943 11.0818C0.215062 11.4581 0 11.9682 0 12.5C0 13.0318 0.215061 13.5419 0.597942 13.9182L1.2522 14.5605L1.79742 15.0956L11.3387 24.4614C11.7263 24.8159 12.239 25.0089 12.7686 24.9997C13.2983 24.9905 13.8037 24.7799 14.1783 24.4122C14.5529 24.0445 14.7675 23.5484 14.7768 23.0285C14.7862 22.5085 14.5896 22.0053 14.2284 21.6249ZM24.4511 21.6249L15.1551 12.5L24.4511 3.37512C24.8122 2.99467 25.0088 2.49147 24.9995 1.97153C24.9901 1.4516 24.7756 0.955525 24.401 0.587819C24.0264 0.220113 23.521 0.00948635 22.9913 0.000312677C22.4616 -0.008861 21.949 0.184134 21.5614 0.53864L10.8206 11.0818C10.4377 11.4581 10.2227 11.9682 10.2227 12.5C10.2227 13.0318 10.4377 13.5419 10.8206 13.9182L11.4749 14.5605L12.0201 15.0956L21.5614 24.4614C21.949 24.8159 22.4616 25.0089 22.9913 24.9997C23.521 24.9905 24.0264 24.7799 24.401 24.4122C24.7756 24.0445 24.9901 23.5484 24.9995 23.0285C25.0088 22.5085 24.8122 22.0053 24.4511 21.6249Z" fill="url(#paint0_linear_1093_695)"/>
<defs>
<linearGradient id="paint0_linear_1093_695" x1="36.7497" y1="-13.1945" x2="-5.06273" y2="-11.8162" gradientUnits="userSpaceOnUse">
<stop stop-color="#0048FE"/>
<stop offset="1" stop-color="#851D86"/>
</linearGradient>
</defs>
</svg>
